<svg xmlns="http://www.w3.org/2000/svg" width="500" height="500" style="width:100%;height:100%;transform:translate3d(0,0,0)" viewBox="0 0 500 500"><defs><clipPath id="a"><path d="M0 0h500v500H0z"/></clipPath><clipPath id="g"><path d="M0 0h500v500H0z"/></clipPath><clipPath id="f"><path d="M0 0h500v500H0z"/></clipPath><clipPath id="e"><path d="M0 0h500v500H0z"/></clipPath><clipPath id="d"><path d="M0 0h500v500H0z"/></clipPath><clipPath id="c"><path d="M0 0h500v500H0z"/></clipPath><clipPath id="b"><path d="M0 0h500v500H0z"/></clipPath></defs><g clip-path="url(#a)"><g clip-path="url(#b)" style="display:none"><g class="primary design" style="display:none"><path class="primary"/></g><g class="primary design" style="display:none"><path fill="none" class="primary"/></g><g class="primary design" style="display:none"><path class="primary"/></g></g><g clip-path="url(#c)" style="display:block"><g class="primary design" style="display:none"><path fill="none" class="primary"/></g><g class="primary design" style="display:none"><path fill="none" class="primary"/></g><g class="primary design" style="display:none"><path fill="none" class="primary"/></g><g class="primary design" style="display:block"><path fill="#48403A" d="M399.737 230.496c-8.644 0-15.65-7.007-15.65-15.65 0-66.04-53.726-119.767-119.766-119.767-8.644 0-15.651-7.006-15.651-15.649 0-8.643 7.007-15.65 15.651-15.65 83.299 0 151.067 67.767 151.067 151.066 0 8.643-7.007 15.65-15.651 15.65zm-40.956 207.027c-2.659 0-5.33-.183-7.999-.554a359.429 359.429 0 0 1-112.544-35.115c-34.521-17.4-65.93-40.131-93.36-67.56-27.429-27.429-50.159-58.839-67.559-93.36A359.403 359.403 0 0 1 42.204 128.39a58.002 58.002 0 0 1 13.705-46.089 57.677 57.677 0 0 1 43.508-19.824h68.655a36.61 36.61 0 0 1 36.102 30.288l8.069 45.724c3.855 21.85-5.352 44.256-23.458 57.081l-6.574 4.657c25.147 38.34 58.333 71.28 97.083 96.363l4.299-6.096c12.817-18.173 35.258-27.418 57.149-23.554l45.665 8.059a36.606 36.606 0 0 1 30.289 36.101v68.655a57.678 57.678 0 0 1-19.825 43.509 58.004 58.004 0 0 1-38.09 14.259zM99.417 93.777c-7.737 0-14.805 3.223-19.902 9.077a26.722 26.722 0 0 0-6.309 21.229C93.453 269.805 209.367 385.719 355.09 405.967a26.712 26.712 0 0 0 21.228-6.309c5.854-5.096 9.077-12.165 9.077-19.903V311.1a5.351 5.351 0 0 0-4.428-5.277l-45.665-8.059c-10.012-1.764-20.271 2.46-26.131 10.769l-12.78 18.121c-4.69 6.651-13.696 8.597-20.717 4.473-52.733-30.981-96.998-74.946-128.01-127.144-4.167-7.013-2.248-16.049 4.408-20.764l18.621-13.19c8.279-5.864 12.49-16.109 10.726-26.1l-8.069-45.724a5.353 5.353 0 0 0-5.278-4.428H99.417z" class="primary"/></g><g class="primary design" style="display:block"><path fill="#48403A" d="M323.566 230.496c-8.644 0-15.651-7.006-15.651-15.649 0-24.039-19.557-43.596-43.595-43.596-8.644 0-15.65-7.007-15.65-15.65s7.006-15.649 15.65-15.649c41.297 0 74.896 33.598 74.896 74.895 0 8.643-7.006 15.649-15.65 15.649z" class="primary"/></g><g class="primary design" style="display:none"><path class="primary"/></g></g><g clip-path="url(#d)" style="display:none"><g class="primary design" style="display:none"><path fill="none" class="primary"/></g><g class="primary design" style="display:none"><path fill="none" class="primary"/></g><g class="primary design" style="display:none"><path fill="none" class="primary"/></g><g class="primary design" style="display:none"><path fill="none" class="primary"/></g><g class="primary design" style="display:none"><path fill="none" class="primary"/></g><g class="primary design" style="display:none"><path class="primary"/><path class="primary"/></g><g class="primary design" style="display:none"><path class="primary"/></g><g class="primary design" style="display:none"><path class="primary"/><path class="primary"/></g><g class="primary design" style="display:none"><path class="primary"/></g></g><g clip-path="url(#e)" style="display:none"><g class="primary design" style="display:none"><path fill="none" class="primary"/></g><g class="primary design" style="display:none"><path fill="none" class="primary"/></g><g class="primary design" style="display:none"><path fill="none" class="primary"/></g><g class="primary design" style="display:none"><path class="primary"/></g><g class="primary design" style="display:none"><path class="primary"/><path class="primary"/></g><g class="primary design" style="display:none"><path class="primary"/></g></g><g clip-path="url(#f)" style="display:none"><g class="primary design" style="display:none"><path fill="none" class="primary"/></g><g class="primary design" style="display:none"><path fill="none" class="primary"/></g><g class="primary design" style="display:none"><path fill="none" class="primary"/></g><g class="primary design" style="display:none"><path fill="none" class="primary"/></g><g class="primary design" style="display:none"><path class="primary"/></g><g class="primary design" style="display:none"><path class="primary"/></g></g><g clip-path="url(#g)" style="display:none"><g class="primary design" style="display:none"><path fill="none" class="primary"/></g><g class="primary design" style="display:none"><path class="primary"/></g></g></g></svg>